<svg xmlns="http://www.w3.org/2000/svg" viewBox="0 0 24 24" fill="#000000"><path d="M12.525.02c1.31-.02 2.61-.01 3.91-.02.08 1.53.63 3.09 1.75 4.17 1.12 1.11 2.7 1.62 4.24 1.79v4.03c-1.44-.05-2.89-.35-4.2-.97-.57-.26-1.1-.65-1.62-1.12v8.38c0 4.41-3.58 7.96-7.98 7.98-4.39.02-7.97-3.55-7.99-7.95.02-4.4 3.56-7.96 7.96-7.98 1.2 0 2.37.23 3.48.71v4.16c-1.11-.79-2.52-1.06-3.86-.74-2.12.51-3.64 2.5-3.32 4.69.32 2.19 2.29 3.82 4.5 3.82 2.51 0 4.54-2.04 4.54-4.54V4.5c1.64.44 3.09 1.48 4.09 2.89V1.09c-1.99-.45-3.68-1.57-4.66-3.33-.2-.36-.37-.74-.5-1.13-.01-1.74-.01-1.75-.01-1.75z" fill="#FE2C55" style="fill:#FE2C55;"/><path d="M12.525.02c1.31-.02 2.61-.01 3.91-.02.08 1.53.63 3.09 1.75 4.17 1.12 1.11 2.7 1.62 4.24 1.79v4.03c-1.44-.05-2.89-.35-4.2-.97-.57-.26-1.1-.65-1.62-1.12v8.38c0 4.41-3.58 7.96-7.98 7.98-4.39.02-7.97-3.55-7.99-7.95.02-4.4 3.56-7.96 7.96-7.98 1.2 0 2.37.23 3.48.71v4.16c-1.11-.79-2.52-1.06-3.86-.74-2.12.51-3.64 2.5-3.32 4.69.32 2.19 2.29 3.82 4.5 3.82 2.51 0 4.54-2.04 4.54-4.54V4.5c1.64.44 3.09 1.48 4.09 2.89V1.09c-1.99-.45-3.68-1.57-4.66-3.33-.2-.36-.37-.74-.5-1.13-.01-1.74-.01-1.75-.01-1.75z" fill="#25F4EE" style="mix-blend-mode:multiply;fill:#25F4EE;"/></svg>
